<svg width="512" height="512" viewBox="0 0 512 512" fill="none" xmlns="http://www.w3.org/2000/svg">
    <rect width="512" height="512" rx="128" fill="#2196F3"/>
    <path d="M256 128C185.307 128 128 185.307 128 256C128 326.693 185.307 384 256 384C326.693 384 384 326.693 384 256C384 185.307 326.693 128 256 128ZM304.8 292.267C301.867 298.133 297.6 302.933 292 306.667C286.4 310.4 279.733 313.067 272 314.667C264.267 316.267 255.733 317.067 246.4 317.067V344H232V317.067C218.667 316.533 206.4 314.133 195.2 309.867C184 305.6 175.467 299.467 169.6 291.467L188.8 272.267C193.067 278.133 198.933 282.933 206.4 286.667C213.867 290.4 222.667 292.533 232.8 293.067V242.667C222.133 240.533 213.333 238.4 206.4 236.267C199.467 234.133 193.867 231.467 189.6 228.267C185.333 225.067 182.133 221.333 180 217.067C177.867 212.8 176.8 207.733 176.8 201.867C176.8 196 178.133 190.667 180.8 185.867C183.467 181.067 187.2 176.8 192 173.067C196.8 169.333 202.667 166.4 209.6 164.267C216.533 162.133 224.267 160.8 232.8 160.267V134.667H247.2V160.267C258.667 161.333 269.067 163.733 278.4 167.467C287.733 171.2 295.467 176 301.6 181.867L283.2 201.867C278.933 197.6 274.133 194.133 268.8 191.467C263.467 188.8 257.067 186.933 249.6 185.867V234.667C260.267 236.8 269.067 238.933 276 241.067C282.933 243.2 288.533 245.867 292.8 249.067C297.067 252.267 300.267 256 302.4 260.267C304.533 264.533 305.6 269.6 305.6 275.467C305.6 281.333 305.333 286.4 304.8 292.267Z" fill="white"/>
</svg>
